<svg width="16" height="16" viewBox="0 0 16 16" fill="none" xmlns="http://www.w3.org/2000/svg">
<path fill-rule="evenodd" clip-rule="evenodd" d="M8.16 3.5C5.73 5.06 4.55 6.67 4.55 9.36C4.71 9.31 4.85 9.31 4.99 9.31C6.26 9.31 7.49 10.17 7.49 11.72C7.49 13.33 6.46 14.33 4.99 14.33C3.09 14.33 2 12.81 2 10.08C2 6.28 3.75 3.55 7.02 1.66L8.16 3.5ZM15.16 3.5C12.73 5.06 11.55 6.67 11.55 9.36C11.71 9.31 11.85 9.31 11.99 9.31C13.26 9.31 14.49 10.17 14.49 11.72C14.49 13.33 13.46 14.33 11.99 14.33C10.1 14.33 9.01 12.81 9.01 10.08C9.01 6.28 10.76 3.55 14.03 1.66L15.17 3.5H15.16Z" fill="white"/>
</svg>
