<svg viewBox="0 0 16 16" version="1.1" xmlns="http://www.w3.org/2000/svg">
  <g stroke="none" fill="none" fill-rule="evenodd">
    <path d="M8.16,3.5 C5.73,5.06 4.55,6.67 4.55,9.36 C4.71,9.31 4.85,9.31 4.99,9.31 C6.26,9.31 7.49,10.17 7.49,11.72 C7.49,13.33 6.46,14.33 4.99,14.33 C3.09,14.33 2,12.81 2,10.08 C2,6.28 3.75,3.55 7.02,1.66 L8.16,3.5 L8.16,3.5 Z M15.16,3.5 C12.73,5.06 11.55,6.67 11.55,9.36 C11.71,9.31 11.85,9.31 11.99,9.31 C13.26,9.31 14.49,10.17 14.49,11.72 C14.49,13.33 13.46,14.33 11.99,14.33 C10.1,14.33 9.01,12.81 9.01,10.08 C9.01,6.28 10.76,3.55 14.03,1.66 L15.17,3.5 L15.16,3.5 L15.16,3.5 Z" fill="#FFFFFF"></path>
  </g>
</svg>