<svg width="16" height="16" viewBox="0 0 16 16" fill="none" xmlns="http://www.w3.org/2000/svg">
<g clip-path="url(#clip0)">
<path fill-rule="evenodd" clip-rule="evenodd" d="M7.21 9.5L5.574 4.594L3.857 9.5H7.21ZM7.71 11L8.539 13.487C8.60379 13.6732 8.73932 13.8265 8.91626 13.9135C9.09319 14.0006 9.29729 14.0145 9.48438 13.9521C9.67146 13.8898 9.82648 13.7563 9.91587 13.5806C10.0053 13.4048 10.0218 13.2009 9.962 13.013L6.735 3.332C6.65502 3.09108 6.50165 2.88124 6.29639 2.73188C6.09113 2.58253 5.84428 2.50115 5.59044 2.49917C5.3366 2.49718 5.08851 2.57469 4.88094 2.72081C4.67337 2.86694 4.51674 3.07436 4.433 3.314L1.043 13.002C0.983578 13.188 0.999056 13.3899 1.08614 13.5647C1.17323 13.7395 1.32505 13.8734 1.50934 13.938C1.69363 14.0026 1.89584 13.9928 2.073 13.9106C2.25015 13.8284 2.38827 13.6804 2.458 13.498L3.332 11H7.71Z" fill="white"/>
<path fill-rule="evenodd" clip-rule="evenodd" d="M13.8578 10.483L12.5765 6.64069L11.2318 10.483H13.8578ZM14.2494 11.6578L14.8987 13.6056C14.9494 13.7515 15.0555 13.8715 15.1941 13.9397C15.3327 14.0078 15.4925 14.0187 15.6391 13.9699C15.7856 13.9211 15.907 13.8165 15.977 13.6789C16.047 13.5412 16.06 13.3815 16.0131 13.2344L13.4858 5.6523C13.4231 5.46361 13.303 5.29926 13.1423 5.18229C12.9815 5.06532 12.7882 5.00158 12.5894 5.00003C12.3906 4.99847 12.1963 5.05918 12.0337 5.17362C11.8711 5.28807 11.7485 5.45052 11.6829 5.6382L9.02785 13.2258C8.98132 13.3714 8.99344 13.5295 9.06164 13.6664C9.12985 13.8033 9.24875 13.9082 9.39309 13.9588C9.53742 14.0094 9.69579 14.0017 9.83454 13.9374C9.97328 13.873 10.0815 13.7571 10.1361 13.6142L10.8206 11.6578H14.2494Z" fill="white" fill-opacity="0.5"/>
</g>
<defs>
<clipPath id="clip0">
<rect width="16" height="16" fill="white"/>
</clipPath>
</defs>
</svg>
