<svg width="16" height="16" viewBox="0 0 16 16" fill="none" xmlns="http://www.w3.org/2000/svg">
<path fill-rule="evenodd" clip-rule="evenodd" d="M1.75 1C1.28587 1 0.840752 1.18437 0.512563 1.51256C0.184374 1.84075 0 2.28587 0 2.75V11.25C0 12.216 0.784 13 1.75 13H11.5C12.5 13 13.5 12.5 14.3 11L15.7184 8C16 7.34448 16 7 16 7C16 6.3 15.7 6 15 6H14V4.75C14 4.28587 13.8156 3.84075 13.4874 3.51256C13.1592 3.18437 12.7141 3 12.25 3H6.75C6.71119 3 6.67291 2.99096 6.6382 2.97361C6.60348 2.95625 6.57329 2.93105 6.55 2.9L5.65 1.7C5.32 1.26 4.8 1 4.25 1H1.75ZM2 2C1.3 2 1 2.3 1 3V11C1 11.7 1.8 12 2 11.5C2 11.5 3.5 8 4 7C4.5 6 5 6 5.5 6H13V5C13 4.3 12.7 4 12 4H6.5C6.34138 4 6.23309 4 6.1352 3.96808C5.92452 3.89936 5.76208 3.68277 5.25 3C4.73792 2.31723 4.57548 2.10064 4.3648 2.03192C4.26691 2 4.15862 2 4 2H2Z" fill="black"/>
</svg>
