<svg width="16" height="16" viewBox="0 0 16 16" fill="none" xmlns="http://www.w3.org/2000/svg">
<path fill-rule="evenodd" clip-rule="evenodd" d="M1.75 1C1.28587 1 0.840752 1.18437 0.512563 1.51256C0.184374 1.84075 0 2.28587 0 2.75V11.25C0 12.216 0.784 13 1.75 13H12.25C12.7141 13 13.1592 12.8156 13.4874 12.4874C13.8156 12.1592 14 11.7141 14 11.25V4.75C14 4.28587 13.8156 3.84075 13.4874 3.51256C13.1592 3.18437 12.7141 3 12.25 3H6.75C6.71119 3 6.67291 2.99096 6.6382 2.97361C6.60348 2.95625 6.57329 2.93105 6.55 2.9L5.65 1.7C5.32 1.26 4.8 1 4.25 1H1.75Z" fill="black"/>
</svg>
