<svg width="16" height="16" viewBox="0 0 16 16" fill="none" xmlns="http://www.w3.org/2000/svg">
<path fill-rule="evenodd" clip-rule="evenodd" d="M0 2.75C0 1.784 0.784 1 1.75 1H5C5.55 1 6.07 1.26 6.4 1.7L7.3 2.9C7.32329 2.93105 7.35348 2.95625 7.3882 2.97361C7.42291 2.99096 7.46119 3 7.5 3H12.25C13.216 3 14 3.784 14 4.75V11.25C14 11.7141 13.8156 12.1592 13.4874 12.4874C13.1592 12.8156 12.7141 13 12.25 13H1.75C1.28587 13 0.840752 12.8156 0.512563 12.4874C0.184374 12.1592 0 11.7141 0 11.25L0 2.75ZM8.42 11.11L11.303 8.433C11.3281 8.4096 11.3482 8.38128 11.3619 8.3498C11.3756 8.31831 11.3827 8.28434 11.3827 8.25C11.3827 8.21566 11.3756 8.18169 11.3619 8.1502C11.3482 8.11872 11.3281 8.0904 11.303 8.067L8.42 5.39C8.38435 5.35694 8.33984 5.33499 8.29191 5.32684C8.24398 5.31869 8.19471 5.32469 8.15014 5.34411C8.10557 5.36353 8.06763 5.39553 8.04096 5.43618C8.01429 5.47683 8.00006 5.52438 8 5.573V7.5H3.75C3.55109 7.5 3.36032 7.57902 3.21967 7.71967C3.07902 7.86032 3 8.05109 3 8.25C3 8.44891 3.07902 8.63968 3.21967 8.78033C3.36032 8.92098 3.55109 9 3.75 9H8V10.927C8 11.145 8.26 11.258 8.42 11.11Z" fill="black"/>
</svg>
