<svg width="16" height="16" viewBox="0 0 16 16" xmlns="http://www.w3.org/2000/svg">
<path d="M10.3471755,2.62679506 C12.2567833,1.97506143 13.9862124,1.92804018 15.8481074,2.66030677 L15.4853688,3.71153724 C14.1069722,3.21553724 12.1725262,3.20003871 10.7623214,3.68803871 L10.3471755,2.62679506 Z" id="top-right" opacity="0.25" transform="translate(13.097641, 2.918038) rotate(45.000000) translate(-13.097641, -2.918038) "></path>
<path d="M12.4541483,7.72444468 C14.363757,7.07271079 16.0931852,7.0256898 17.9550802,7.75795639 L17.5923426,8.80918733 C16.213945,8.31318634 14.2794999,8.29768833 12.8692942,8.78568833 L12.4541483,7.72444468 Z" id="right" opacity="0.25" transform="translate(15.204614, 8.015688) rotate(90.000000) translate(-15.204614, -8.015688) "></path>
<path d="M10.3167311,12.794357 C12.2263398,12.1426226 13.9557689,12.0956021 15.817663,12.8278687 L15.4549263,13.8790992 C14.0765278,13.3830982 12.1420827,13.3676002 10.731877,13.8556002 L10.3167311,12.794357 Z" id="bottom-right" opacity="0.25" transform="translate(13.067197, 13.085600) rotate(135.000000) translate(-13.067197, -13.085600) "></path>
<path d="M5.23522029,14.8903573 C7.14482856,14.2386229 8.87425765,14.1916024 10.7361517,14.923869 L10.3734151,15.9750995 C8.99501649,15.4790985 7.06057142,15.4636004 5.65036616,15.9516004 L5.23522029,14.8903573 Z" id="bottom" opacity="0.25" transform="translate(7.985686, 15.181600) rotate(180.000000) translate(-7.985686, -15.181600) "></path>
<path d="M0.193467982,12.8343562 C2.10307597,12.1826121 3.83249147,12.1356042 5.6944081,12.8678601 L5.33165639,13.9190916 C3.95327092,13.4230916 2.01881977,13.4076043 0.608615783,13.8956043 L0.193467982,12.8343562 Z" id="bottom-left" opacity="0.25" transform="translate(2.943938, 13.125594) rotate(225.000000) translate(-2.943938, -13.125594) "></path>
<path d="M-1.93126612,7.74692517 C-0.0216578519,7.09518105 1.70775766,7.04817321 3.56967403,7.78042908 L3.20692184,8.83166053 C1.82853688,8.33566053 -0.105914011,8.32017324 -1.51611835,8.80817324 L-1.93126612,7.74692517 Z" id="left" opacity="0.25" transform="translate(0.819204, 8.038163) rotate(-90.000000) translate(-0.819204, -8.038163) "></path>
<path d="M0.187153602,2.6259672 C2.0967614,1.97423379 3.82618998,1.92721257 5.68808599,2.65947917 L5.32534738,3.71070963 C3.94695076,3.21470963 2.01250422,3.1992111 0.602299431,3.68721085 L0.187153602,2.6259672 Z" id="top-left" opacity="0.25" transform="translate(2.937620, 2.917210) rotate(-45.000000) translate(-2.937620, -2.917210) "></path>
<path d="M5.2773481,0.509751712 C7.18695637,-0.14198208 8.91638448,-0.1890032 10.7782805,0.543263072 L10.4155419,1.59449379 C9.03714526,1.09849379 7.10269872,1.08299549 5.69249393,1.57099526 L5.2773481,0.509751712 Z" id="top" opacity="0.25"></path>
<path d="M6.06759443,14.5552002 C6.06759443,14.5552002 6.06361829,12.9952002 6.06361829,12.992 C6.06361829,12.9887998 5.91252485,12.8512002 5.0139165,12.96 C4.11530815,13.0687998 3.02584493,10.8272002 2.93836978,10.728 C2.85089463,10.6287998 3.38369781,10.5472002 3.78131213,10.888 C4.17892644,11.2287998 4.99801193,11.9552002 5.00596421,11.952 C5.0139165,11.9487998 6.01590457,11.9712002 6.01590457,11.968 C6.01590457,11.9647998 6.11133201,10.5552002 6.67594433,10.768 C7.24055666,10.9807998 4.36978131,10.8112002 3.5666004,8.808 C2.76341948,6.80479981 4.17892644,4.81120019 4.21073559,5.11520019 C4.24254473,5.41920019 3.66998012,3.99520019 3.88469185,3.616 C4.09940358,3.23680006 4.49701789,3.31519994 4.84691849,3.44 C5.19681909,3.56480006 5.93638171,4.09120019 6.09542744,4.12 C6.25447316,4.14879981 6.67594433,3.85919994 7.98011928,3.88 C9.28429423,3.90080006 9.6586623,4.07643117 9.78528827,4.088 C9.91191424,4.09956883 10.7560768,3.53181568 11.00199,3.36615357 C11.2479032,3.20049146 11.5953449,3.07519971 11.9134393,3.39138525 C12.2315337,3.70757078 12.0700407,5.53550781 12.0119284,5.168 C12.0040221,5.11799978 12.0196109,5.12342304 12.0500248,5.17426458 C12.2431568,5.4971146 13.0340969,7.65141411 12.2027833,9.07520019 C11.2405567,10.7232002 9.04572565,10.7632002 9.41153082,10.864 C9.77733598,10.9647998 9.88866799,11.9312002 9.88071571,12.4592002 L9.87276342,14.568 L9.14512922,14.692 L9.12922465,12.3 C9.1332008,12.0047998 8.8389662,11.9592002 8.82306163,11.988 L8.81510934,14.736 L8.13916501,14.776 L8.13121272,12 L7.7972167,12 L7.7972167,14.768 L7.13717694,14.736 L7.12922465,12.04 C7.12922465,12.0367998 6.85089463,12.0032002 6.8667992,12.384 L6.85089463,14.696 L6.06759443,14.5552002 Z" id="octocat"></path>
</svg>
